<?xml version="1.0" encoding="UTF-8"?>
<svg version="1.1" xmlns="http://www.w3.org/2000/svg" width="2000" height="2000">
<path d="M0 0 C660 0 1320 0 2000 0 C2000 660 2000 1320 2000 2000 C1340 2000 680 2000 0 2000 C0 1340 0 680 0 0 Z " fill="#0A0A0A" transform="translate(0,0)"/>
<path d="M0 0 C0.73901802 0.0000919 1.47803604 0.00018379 2.23944855 0.00027847 C39.61381214 0.00626862 76.85866927 1.85845608 113.5625 9.375 C115.42817627 9.75180908 115.42817627 9.75180908 117.33154297 10.13623047 C153.66513261 17.59665445 188.82078214 28.96525988 222.5625 44.375 C223.51366699 44.80538574 224.46483398 45.23577148 225.44482422 45.67919922 C256.76792924 59.9275403 286.98002387 78.66108069 312.2265625 102.21484375 C314.19751792 104.03748313 316.20314259 105.78955734 318.23828125 107.5390625 C323.07454939 111.75813821 327.59926974 116.26509824 332.125 120.8125 C332.93646484 121.62009766 333.74792969 122.42769531 334.58398438 123.25976562 C339.45138948 128.13502772 344.10835175 133.1201806 348.5625 138.375 C349.10495361 139.01074951 349.64740723 139.64649902 350.20629883 140.30151367 C394.27096086 192.27806784 426.08232545 255.65599347 441.95654297 321.91796875 C442.5344757 324.26136723 443.16190563 326.58320508 443.81640625 328.90625 C450.64409715 353.22157075 454.45147516 378.18682431 457.31707764 403.23986816 C457.57490995 405.48296438 457.83807897 407.72539185 458.10205078 409.96777344 C458.57322002 413.98222006 459.03267469 417.99787043 459.48406982 422.0145874 C459.65634057 423.54367318 459.83057289 425.07253976 460.00714111 426.60113525 C462.89690946 451.79654633 462.72322284 477.05887358 462.69287109 502.38232422 C462.68715866 507.17433951 462.69047688 511.96629894 462.69644356 516.75831223 C462.7000966 520.51636153 462.69888935 524.27439808 462.69631577 528.03244781 C462.69566039 529.79745745 462.69642472 531.56246834 462.69879532 533.3274765 C462.71818231 551.79331977 461.68148108 570.09539533 459.84521484 588.46728516 C459.56944825 591.30353747 459.32449762 594.14120233 459.08203125 596.98046875 C457.62643298 612.79042534 454.98357097 628.37008364 452.25 644 C452.06549286 645.06721283 451.88098572 646.13442566 451.69088745 647.23397827 C448.08447604 667.98533686 443.73198183 688.60573243 437.3125 708.6875 C436.93464355 709.8827832 436.55678711 711.07806641 436.16748047 712.30957031 C427.57915851 739.17668657 417.6304301 765.35557437 404.58691406 790.39990234 C403.47854414 792.53686914 402.39172643 794.68414156 401.3046875 796.83203125 C389.37740426 820.18526731 374.82232117 841.83486167 358.5625 862.375 C357.82515625 863.30699219 357.0878125 864.23898437 356.328125 865.19921875 C351.51616982 871.18003538 346.45212345 876.87155025 341.2265625 882.48828125 C338.91276117 884.9954648 336.67301799 887.54854394 334.4375 890.125 C324.51297414 901.17406745 313.25442477 911.24212036 301.5625 920.375 C300.20394443 921.46293924 298.84591595 922.55153684 297.48828125 923.640625 C288.17399581 931.05932528 278.66194879 937.89497559 268.53271484 944.15625 C266.71780241 945.27893189 264.91496711 946.41877124 263.11328125 947.5625 C226.25258321 970.63755148 184.50889914 987.48036347 142.24145508 997.49780273 C139.44191016 998.1653165 136.64968899 998.85146334 133.8581543 999.55102539 C122.10598916 1002.46627221 110.35244953 1004.77942994 98.38793945 1006.63305664 C95.62709934 1007.0621737 92.86927089 1007.50775833 90.11132812 1007.95507812 C77.30074234 1009.9968153 64.49749299 1011.40969969 51.5625 1012.375 C50.43359848 1012.46177002 50.43359848 1012.46177002 49.28189087 1012.55029297 C35.14330078 1013.60107073 20.98301717 1013.57439417 6.8125 1013.5625 C4.98617538 1013.56209213 4.98617538 1013.56209213 3.12295532 1013.56167603 C-15.14771239 1013.54291749 -33.24652229 1013.20776681 -51.4375 1011.375 C-52.54109863 1011.26784668 -53.64469727 1011.16069336 -54.78173828 1011.05029297 C-78.65278583 1008.68009357 -102.03406382 1004.54073653 -125.38525391 999.08349609 C-128.02788171 998.47008177 -130.67416794 997.88098303 -133.32421875 997.30078125 C-184.46736721 985.73203697 -235.42219843 962.64271074 -277.4375 931.375 C-278.31607666 930.7238623 -278.31607666 930.7238623 -279.21240234 930.05957031 C-301.6263657 913.36299641 -324.22521617 894.05437271 -341.421875 871.94921875 C-343.31173602 869.53561718 -345.28787337 867.2200538 -347.30200195 864.90991211 C-379.47153849 827.81999535 -402.50159154 782.1230076 -419.4375 736.375 C-419.83420898 735.31522949 -420.23091797 734.25545898 -420.63964844 733.16357422 C-431.58636998 703.69551367 -438.50979475 673.34476164 -444.05993652 642.46200562 C-444.44224859 640.34875187 -444.83432371 638.23747024 -445.22753906 636.1262207 C-447.02886055 626.34775826 -448.38369745 616.57326282 -449.4375 606.6875 C-449.56106873 605.52960968 -449.56106873 605.52960968 -449.68713379 604.34832764 C-450.11862471 600.27537112 -450.53938704 596.20145911 -450.95117188 592.12646484 C-451.25455616 589.13005352 -451.57187417 586.13595391 -451.90820312 583.14306641 C-454.47980205 560.08168081 -454.705408 537.05216262 -454.6875 513.875 C-454.68723312 513.12910866 -454.68696625 512.38321732 -454.68669128 511.61472321 C-454.67094163 483.87207832 -454.50183414 456.11207202 -451.5625 428.5 C-451.38168223 426.73719102 -451.20135218 424.97433195 -451.02148438 423.21142578 C-450.51189547 418.26389588 -449.98001632 413.31901748 -449.4375 408.375 C-449.30053711 407.12267578 -449.16357422 405.87035156 -449.02246094 404.58007812 C-446.52643408 382.25269428 -442.52075923 360.25269182 -437.4375 338.375 C-437.16454102 337.18793457 -436.89158203 336.00086914 -436.61035156 334.77783203 C-427.6324178 296.12311501 -414.13316353 259.92405323 -396.4375 224.375 C-396.02032715 223.53130859 -395.6031543 222.68761719 -395.17333984 221.81835938 C-381.99952009 195.3520854 -365.3503161 170.1609749 -346.28369141 147.56982422 C-344.87358173 145.89343094 -343.47733542 144.20536673 -342.08740234 142.51220703 C-335.53255731 134.57491968 -328.55187253 127.17728527 -321.24902344 119.92578125 C-319.43186522 118.11939864 -317.62572898 116.30248505 -315.8203125 114.484375 C-308.99881599 107.65486966 -302.02768924 101.35045511 -294.4375 95.375 C-293.26313942 94.39907114 -292.09203579 93.41919522 -290.92578125 92.43359375 C-274.7832018 79.01579726 -256.82755325 67.47120033 -238.4375 57.375 C-237.53515625 56.87935547 -236.6328125 56.38371094 -235.703125 55.87304688 C-186.43352531 29.05500418 -132.7762524 12.8432763 -77.375 5.1875 C-76.00263184 4.99698059 -76.00263184 4.99698059 -74.60253906 4.8026123 C-49.70485902 1.37974004 -25.11741654 -0.03378182 0 0 Z " fill="#F4F4F4" transform="translate(995.4375,533.625)"/>
<path d="M0 0 C0.72074707 0.12036621 1.44149414 0.24073242 2.18408203 0.36474609 C38.99410524 6.77206828 76.13463792 24.10178296 104 49 C104.75603516 49.66781494 104.75603516 49.66781494 105.52734375 50.34912109 C144.05355281 84.49840172 167.47242735 130.71281214 179.35839844 180.40356445 C180.04007214 183.16216407 180.78451005 185.89828615 181.54296875 188.63671875 C188.75657107 214.89192284 191.28881807 242.636957 193.75 269.6875 C193.86545166 270.95424561 193.98090332 272.22099121 194.09985352 273.52612305 C195.75745685 292.75507575 196.20202699 311.89145997 196.1875 331.1875 C196.18756042 332.42300598 196.18762085 333.65851196 196.18768311 334.93145752 C196.1751856 352.90316271 195.78730533 370.71944205 194.27783203 388.63134766 C193.99602129 392.04824102 193.75630543 395.4659048 193.52734375 398.88671875 C193.09308457 405.26510286 192.57890009 411.63315924 192 418 C191.92233398 418.87092285 191.84466797 419.7418457 191.76464844 420.63916016 C190.39390418 435.05417318 187.49307963 449.19914333 184.625 463.375 C184.43622284 464.31639832 184.24744568 465.25779663 184.052948 466.22772217 C181.60819873 478.34990661 178.76151236 490.21713468 175 502 C174.63922363 503.13308594 174.27844727 504.26617188 173.90673828 505.43359375 C169.14522921 520.03111526 163.76702215 534.21237666 157 548 C156.63406738 548.74572266 156.26813477 549.49144531 155.89111328 550.25976562 C145.89331814 570.37012088 132.93595458 588.32076489 117.41552734 604.51708984 C116.13444449 605.8591556 114.87266783 607.21958521 113.61328125 608.58203125 C86.25566201 637.33307761 47.72202256 654.05653799 10 664 C8.39898438 664.42539063 8.39898438 664.42539063 6.765625 664.859375 C-59.65108692 680.73458907 -141.26008751 673.01832701 -199.98193359 637.79882812 C-256.80210378 602.78692169 -290.18547274 545.21509039 -305.68507385 481.3684082 C-317.04201593 433.29861085 -320.39188646 384.25535485 -320.26074219 334.99926758 C-320.24932158 330.67034663 -320.25615541 326.34167098 -320.26761913 322.01275826 C-320.3255865 296.21970467 -319.57612155 270.60761747 -316.1875 245 C-316.10351959 244.35220581 -316.01953918 243.70441162 -315.93301392 243.0369873 C-307.12068975 175.22541385 -287.68699546 110.60080592 -240 60 C-239.31035156 59.2678125 -238.62070312 58.535625 -237.91015625 57.78125 C-223.68248043 43.11714241 -206.08736754 31.35203917 -188 22 C-187.28682617 21.6277832 -186.57365234 21.25556641 -185.83886719 20.87207031 C-129.55524156 -8.14801446 -61.41256051 -10.50593895 0 0 Z " fill="#0A0A0A" transform="translate(1062,707)"/>
<path d="M0 0 C1.37760948 -0.00262956 1.37760948 -0.00262956 2.78304946 -0.00531223 C5.88325323 -0.00999147 8.98341048 -0.00750179 12.08361626 -0.00507832 C14.31970854 -0.00694533 16.5558005 -0.00924559 18.79189193 -0.01194364 C24.95460668 -0.01808178 31.1173079 -0.01792568 37.28002501 -0.01674926 C43.23826761 -0.01656664 49.1965062 -0.02105218 55.15474684 -0.02536215 C68.85188575 -0.03504303 82.54902092 -0.03784669 96.24616285 -0.03841921 C106.82426356 -0.03887847 117.4023628 -0.04093535 127.98046303 -0.04411983 C131.0236603 -0.04501736 134.06685758 -0.04590718 137.11005485 -0.04679471 C137.86657724 -0.04701576 138.62309962 -0.04723681 139.40254693 -0.04746456 C160.68874412 -0.05362067 181.9749408 -0.05756493 203.26113892 -0.05712128 C204.06401579 -0.0571057 204.86689266 -0.05709012 205.69409913 -0.05707407 C209.76354246 -0.05699096 213.83298579 -0.05689192 217.90242912 -0.05678936 C218.71065402 -0.05676942 219.51887893 -0.05674947 220.3515955 -0.05672892 C221.98602509 -0.05668848 223.62045468 -0.05664669 225.25488426 -0.05660353 C250.67866613 -0.0559909 276.10243465 -0.06349425 301.52621269 -0.07717609 C330.08161369 -0.09253685 358.63700592 -0.10114229 387.1924113 -0.10021287 C390.23749471 -0.10013824 393.28257811 -0.10008953 396.32766151 -0.10005856 C397.07745199 -0.1000469 397.82724247 -0.10003525 398.59975388 -0.10002324 C410.66679815 -0.09999246 422.73383084 -0.10637893 434.80087168 -0.11499082 C446.93016806 -0.12346805 459.05944751 -0.12445673 471.18874522 -0.1178815 C477.75998874 -0.11451132 484.33119872 -0.11457901 490.90243912 -0.12323475 C496.91793661 -0.131077 502.93335871 -0.12969157 508.94885431 -0.12095062 C511.12521085 -0.11941059 513.30157295 -0.12125063 515.47792293 -0.12681069 C518.43736385 -0.13387064 521.3965403 -0.12857709 524.35597229 -0.12025452 C525.19971834 -0.1252227 526.04346439 -0.13019088 526.9127785 -0.13530961 C541.97514943 -0.04583841 555.02599095 5.30034265 565.87582207 15.8122282 C577.70865438 28.38726326 583.59620717 42.29993046 583.54965019 59.62106609 C582.9982783 75.42529322 575.2229616 89.31071143 564.05550957 100.12863445 C549.19313762 113.38935617 533.50391031 115.01836407 514.51083183 114.89053631 C512.25627584 114.8974605 510.00172663 114.90699701 507.74719143 114.91889977 C501.58878489 114.94382816 495.43093991 114.93162143 489.27253199 114.91298246 C483.30142134 114.90076532 477.33040214 114.91681599 471.35931262 114.93186666 C458.40197856 114.963374 445.44482258 114.9607577 432.48747179 114.94339318 C421.14800026 114.92827229 409.80859385 114.92437244 398.4691143 114.93152905 C397.71559079 114.93198736 396.96206728 114.93244567 396.18570972 114.93291786 C393.12655734 114.93478604 390.06740499 114.93669645 387.00825268 114.93867645 C358.33805417 114.95701144 329.66796877 114.94041992 300.99778773 114.90809507 C275.55179848 114.8796235 250.10598943 114.88217136 224.66000175 114.91086102 C196.04070429 114.943021 167.42150667 114.95571089 138.80219364 114.93718743 C135.74876406 114.93526326 132.69533445 114.93338621 129.64190483 114.93152905 C128.89012744 114.93105458 128.13835005 114.93058012 127.36379153 114.93009127 C116.03420693 114.9232797 104.70469473 114.93122327 93.37512016 114.94640636 C80.48687471 114.96359265 67.59883446 114.95920782 54.71061444 114.9267219 C48.13846144 114.91070057 41.56659794 114.90472559 34.99444008 114.92461681 C28.97147658 114.94256977 22.9492146 114.93254927 16.92631423 114.9007515 C14.75425463 114.89408068 12.58213507 114.89738803 10.41011441 114.91200623 C-9.30826867 115.03447655 -24.53803662 111.28329676 -39.06167793 97.0544157 C-40.80881571 95.14606135 -42.39729079 93.20129813 -43.94449043 91.12863445 C-44.39179512 90.53953289 -44.83909981 89.95043133 -45.29995918 89.3434782 C-55.11929221 75.11299865 -56.26411318 57.93191529 -53.24527168 41.26925945 C-52.35762056 38.37783892 -51.31970646 35.81908825 -49.94449043 33.12863445 C-49.52038887 32.2778532 -49.09628731 31.42707195 -48.65933418 30.55050945 C-40.59012137 15.89556028 -28.53322251 6.66012003 -12.94449043 1.12863445 C-8.64921547 -0.10533538 -4.4367293 -0.01063064 0 0 Z " fill="#3D86C2" transform="translate(416.94449043273926,377.8713655471802)"/>
</svg>
